:version 1.10
:name ASF
:units
  mass 1
  length 1
  angle deg
:documentation
  ASF file generated by Kaydara
:root
  axis xyz
  order  tx ty tz rx ry rz
  position 0 0 0
  orientation 0 0 0
:bonedata
  begin
    id 1
    name RightUpLegDummy
    direction -0.718183 -0.695806 0.00816078
    length 4.904
    axis 0 0 0 xyz
  end
  begin
    id 2
    name RightUpLeg
    direction 3.53373e-006 -0.995788 0.0916898
    length 17.4976
    axis -3.49089 -0.000906625 0.000286804 xyz
    dof rx ry rz
  end
  begin
    id 3
    name RightLeg
    direction 0.00371092 -0.995096 -0.0988419
    length 16.5821
    axis 3.68512 0.0193738 -0.131023 xyz
    dof rx ry rz
  end
  begin
    id 4
    name RightFoot
    direction 0.00079151 -0.46099 0.887405
    length 3.77069
    axis 4.81691e-005 -0.120479 -0.188788 xyz
    dof rx ry rz
  end
  begin
    id 5
    name RightToes
    direction 0 0 0
    length 0
    axis 0 0 0 xyz
    dof rx ry rz
  end
  begin
    id 6
    name SpineDummy
    direction 8.3039e-015 1 4.57515e-016
    length 4.6813
    axis 0 0 0 xyz
  end
  begin
    id 7
    name Spine
    direction -3.15643e-008 0.999988 0.00495137
    length 10.1015
    axis -0.001389 0.000121418 2.40972e-006 xyz
    dof rx ry rz
  end
  begin
    id 8
    name Spine1
    direction 0 0 0
    length 0
    axis -0.001389 0.000121451 1.30017e-006 xyz
    dof rx ry rz
  end
  begin
    id 9
    name HEadDummy
    direction -1.99912e-008 0.999999 0.00127422
    length 3.43865
    axis -0.001389 0.000121451 1.30017e-006 xyz
  end
  begin
    id 10
    name HEad
    direction 0 0 0
    length 0
    axis 0 0 0 xyz
    dof rx ry rz
  end
  begin
    id 11
    name LeftShoulder1Dummy
    direction 0.998891 -0.0402509 -0.0244456
    length 3.5433
    axis -0.001389 0.000121451 1.30017e-006 xyz
  end
  begin
    id 12
    name LeftShoulder1
    direction 0.99951 -0.000327763 0.0313091
    length 4.05031
    axis -0.001389 0.000121451 1.30017e-006 xyz
    dof rx ry rz
  end
  begin
    id 13
    name LeftArm
    direction 0.998561 -0.00100056 -0.0536182
    length 10.3537
    axis -23.1894 0.134784 0.967509 xyz
    dof rx ry rz
  end
  begin
    id 14
    name LeftForeArm
    direction 0.998903 0.00866432 0.046012
    length 8.70632
    axis -9.91835 -0.06569 -0.177794 xyz
    dof rx ry rz
  end
  begin
    id 15
    name LeftHand
    direction 0 0 0
    length 0
    axis 0 0 0 xyz
    dof rx ry rz
  end
  begin
    id 16
    name RightShoulderDummy
    direction -0.998891 -0.0402509 -0.0244414
    length 3.5433
    axis -0.001389 0.000121451 1.30017e-006 xyz
  end
  begin
    id 17
    name RightShoulder
    direction -0.99951 -0.000327807 0.0313133
    length 4.05031
    axis 0.215806 0.000203643 -0.0068026 xyz
    dof rx ry rz
  end
  begin
    id 18
    name RightArm
    direction -0.998573 -0.000999564 -0.053403
    length 10.3947
    axis -23.2009 -0.134239 -0.964101 xyz
    dof rx ry rz
  end
  begin
    id 19
    name RightForeArm
    direction -0.998898 0.00868028 0.0461306
    length 8.68355
    axis -9.92322 0.0658061 0.178868 xyz
    dof rx ry rz
  end
  begin
    id 20
    name RightHand
    direction 0 0 0
    length 0
    axis 0 0 0 xyz
    dof rx ry rz
  end
  begin
    id 21
    name LeftUpLegDummy
    direction 0.718183 -0.695806 0.00816078
    length 4.904
    axis 0 0 0 xyz
  end
  begin
    id 22
    name LeftUpLeg
    direction -6.81752e-006 -0.995793 0.0916337
    length 17.4976
    axis -3.48766 0.00143442 -0.000524262 xyz
    dof rx ry rz
  end
  begin
    id 23
    name LeftLeg
    direction -0.00601358 -0.995091 -0.0987824
    length 16.5821
    axis 3.68178 -0.00654042 -0.000285133 xyz
    dof rx ry rz
  end
  begin
    id 24
    name LeftFoot
    direction -0.00417578 -0.460984 0.887399
    length 3.77069
    axis 1.87233e-006 4.66016e-005 -8.6538e-006 xyz
    dof rx ry rz
  end
  begin
    id 25
    name LeftToes
    direction 0 0 0
    length 0
    axis 0 0 0 xyz
    dof rx ry rz
  end
:hierarchy
  begin
    root RightUpLegDummy SpineDummy LeftUpLegDummy
    RightUpLegDummy RightUpLeg
    RightUpLeg RightLeg
    RightLeg RightFoot
    RightFoot RightToes
    SpineDummy Spine
    Spine Spine1
    Spine1 HEadDummy LeftShoulder1Dummy RightShoulderDummy
    HEadDummy HEad
    LeftShoulder1Dummy LeftShoulder1
    LeftShoulder1 LeftArm
    LeftArm LeftForeArm
    LeftForeArm LeftHand
    RightShoulderDummy RightShoulder
    RightShoulder RightArm
    RightArm RightForeArm
    RightForeArm RightHand
    LeftUpLegDummy LeftUpLeg
    LeftUpLeg LeftLeg
    LeftLeg LeftFoot
    LeftFoot LeftToes
  end

:SAMPLES-PER-SECOND 30
:FULLY-SPECIFIED
:DEGREES
112
root  13.6535 40.5854 9.66064 133.79 87.1655 136.576
RightUpLeg  0.520894 -12.5286 -13.2796
RightLeg  7.37667 -9.44847 2.21608
RightFoot  -0.0942264 -0.420358 4.25219
RightToes  0.000481921 0.542163 -0.142578
Spine  -0.378957 -0.156942 -0.714779
Spine1  14.4308 -0.95663 2.66106
HEad  11.3717 -2.87527 0.15339
LeftShoulder1  9.36962 -13.5079 -48.0799
LeftArm  -10.839 6.52954 -28.2966
LeftForeArm  175.318 -53.5382 -166.819
LeftHand  -0.25398 0.0180481 5.50724
RightShoulder  5.2619 8.85546 36.5785
RightArm  -2.69688 -12.2913 34.7734
RightForeArm  143.797 52.4314 164.997
RightHand  -1.47908 3.38018 -19.7063
LeftUpLeg  1.31816 7.25825 7.51733
LeftLeg  1.4389 13.2348 -3.56485
LeftFoot  3.4376 0.659034 -5.2393
LeftToes  1.06245e-005 4.65869e-005 -8.65517e-006
113
root  13.6535 40.5849 9.64832 131.946 87.2114 134.798
RightUpLeg  0.565414 -12.5611 -13.3412
RightLeg  7.38502 -9.28184 2.21603
RightFoot  -0.111149 -0.420053 4.25898
RightToes  0.000481921 0.542163 -0.142578
Spine  -0.382807 -0.240092 -0.840399
Spine1  14.4876 -1.06931 2.73472
HEad  11.3396 -2.73402 0.119285
LeftShoulder1  9.37625 -13.456 -48.2629
LeftArm  -10.9516 6.53579 -28.0984
LeftForeArm  175.376 -53.4886 -166.846
LeftHand  -0.25398 0.0180481 5.50724
RightShoulder  5.2167 8.79021 36.4405
RightArm  -2.01485 -13.7514 34.4303
RightForeArm  145.061 51.1397 165.704
RightHand  -1.44151 3.36963 -19.243
LeftUpLeg  1.39982 7.2585 7.48743
LeftLeg  1.46573 13.3209 -3.57119
LeftFoot  3.40068 0.657734 -5.24305
LeftToes  1.06245e-005 4.65869e-005 -8.65517e-006
114
root  13.6473 40.5843 9.63749 130.89 87.2444 133.766
RightUpLeg  0.557177 -12.6045 -13.3738
RightLeg  7.41148 -9.16208 2.21789
RightFoot  -0.131163 -0.420278 4.27621
RightToes  0.000481921 0.542163 -0.142578
Spine  -0.320308 -0.329287 -0.994015
Spine1  14.4276 -1.20277 2.85872
HEad  11.1981 -2.5784 0.0979888
LeftShoulder1  9.35518 -13.3723 -48.3941
LeftArm  -11.0567 6.60384 -27.9581
LeftForeArm  175.414 -53.4307 -166.876
LeftHand  -0.25398 0.0180481 5.50724
RightShoulder  5.12492 8.65464 36.1657
RightArm  -1.50313 -15.1791 34.4295
RightForeArm  146.175 49.9146 166.333
RightHand  -1.38473 3.22513 -18.8049
LeftUpLeg  1.39957 7.25614 7.4626
LeftLeg  1.52922 13.3849 -3.55607
LeftFoot  3.36533 0.65493 -5.23152
LeftToes  1.06245e-005 4.65869e-005 -8.65517e-006
115
root  13.6359 40.5834 9.62761 130.969 87.2514 133.827
RightUpLeg  0.514 -12.6351 -13.3772
RightLeg  7.42737 -9.13155 2.22188
RightFoot  -0.137118 -0.41911 4.27417
RightToes  0.000481921 0.542163 -0.142578
Spine  -0.134726 -0.440774 -1.19633
Spine1  14.0874 -1.36515 3.02469
HEad  11.1528 -2.35519 0.0312921
LeftShoulder1  9.31121 -13.2774 -48.439
LeftArm  -11.1988 6.87185 -27.8686
LeftForeArm  175.44 -53.3428 -166.918
LeftHand  -0.25398 0.0180481 5.50724
RightShoulder  4.9945 8.46782 35.7438
RightArm  -1.10483 -16.7975 34.8835
RightForeArm  147.263 48.7727 166.895
RightHand  -1.33671 3.00642 -18.6226
LeftUpLeg  1.32276 7.25331 7.44411
LeftLeg  1.61061 13.4003 -3.53355
LeftFoot  3.33835 0.648757 -5.19208
LeftToes  1.06245e-005 4.65869e-005 -8.65517e-006
116
root  13.626 40.5817 9.61989 132.038 87.1986 134.889
RightUpLeg  0.502671 -12.6434 -13.3879
RightLeg  7.44398 -9.18625 2.2046
RightFoot  -0.154939 -0.417675 4.27042
RightToes  0.000481921 0.542163 -0.142578
Spine  0.0691157 -0.591134 -1.34727
Spine1  13.6615 -1.51467 3.03075
HEad  11.2402 -2.08489 0.0326058
LeftShoulder1  9.2486 -13.203 -48.3263
LeftArm  -11.3676 7.30034 -27.828
LeftForeArm  175.503 -53.2196 -166.979
LeftHand  -0.25398 0.0180481 5.50724
RightShoulder  4.82806 8.20186 35.2788
RightArm  -0.904207 -18.6213 35.7932
RightForeArm  148.718 47.8451 167.37
RightHand  -1.2948 2.80808 -18.4697
LeftUpLeg  1.25172 7.25256 7.42326
LeftLeg  1.6775 13.3326 -3.5293
LeftFoot  3.31826 0.641362 -5.14082
LeftToes  1.06245e-005 4.65869e-005 -8.65517e-006
117
root  13.6221 40.5796 9.61738 133.856 87.0683 136.726
RightUpLeg  0.539143 -12.6361 -13.4202
RightLeg  7.48665 -9.31743 2.15265
RightFoot  -0.216856 -0.419 4.31208
RightToes  0.000481921 0.542163 -0.142578
Spine  0.139599 -0.772493 -1.44164
Spine1  13.4642 -1.65548 2.89092
HEad  11.3141 -1.82256 0.204224
LeftShoulder1  9.16773 -13.1271 -48.1201
LeftArm  -11.4849 7.68854 -27.8267
LeftForeArm  175.584 -53.0861 -167.046
LeftHand  -0.25398 0.0180481 5.50724
RightShoulder  4.6179 7.83667 34.7615
RightArm  -0.99358 -20.5196 37.0023
RightForeArm  150.4 47.2044 167.731
RightHand  -1.23707 2.64626 -18.0076
LeftUpLeg  1.22188 7.25765 7.39957
LeftLeg  1.70917 13.1689 -3.55826
LeftFoot  3.31186 0.63549 -5.09779
LeftToes  1.06245e-005 4.65869e-005 -8.65517e-006
118
root  13.6218 40.5773 9.6205 136.296 86.8721 139.192
RightUpLeg  0.597742 -12.6485 -13.4678
RightLeg  7.56067 -9.50238 2.09677
RightFoot  -0.317069 -0.421495 4.37457
RightToes  0.000481921 0.542163 -0.142578
Spine  0.101922 -0.962021 -1.6351
Spine1  13.4906 -1.85074 2.89201
HEad  11.3098 -1.60209 0.424019
LeftShoulder1  9.08378 -13.0172 -47.9948
LeftArm  -11.57 7.95578 -27.797
LeftForeArm  175.549 -52.9628 -167.099
LeftHand  -0.25398 0.0180481 5.50724
RightShoulder  4.39695 7.45668 34.1649
RightArm  -1.2449 -22.4113 38.1429
RightForeArm  151.35 46.7677 167.961
RightHand  -1.19057 2.57968 -17.4896
LeftUpLeg  1.20355 7.27119 7.38035
LeftLeg  1.71461 12.9274 -3.61032
LeftFoot  3.3261 0.631903 -5.06529
LeftToes  1.06245e-005 4.65869e-005 -8.65517e-006
119
root  13.6202 40.5749 9.62511 138.873 86.643 141.8
RightUpLeg  0.665074 -12.7266 -13.5384
RightLeg  7.66152 -9.66666 2.07655
RightFoot  -0.427267 -0.42075 4.38954
RightToes  0.000481921 0.542163 -0.142578
Spine  0.0986722 -1.14954 -1.98918
Spine1  13.4871 -2.11278 3.12561
HEad  11.3142 -1.38499 0.466966
LeftShoulder1  9.02301 -12.9077 -47.9912
LeftArm  -11.7509 8.22775 -27.6671
LeftForeArm  175.332 -52.8438 -167.136
LeftHand  -0.25398 0.0180481 5.50724
RightShoulder  4.23622 7.19291 33.6565
RightArm  -1.41926 -24.2489 38.8851
RightForeArm  151.113 46.4238 168.076
RightHand  -1.19625 2.6487 -17.4255
LeftUpLeg  1.17987 7.27585 7.35603
LeftLeg  1.71908 12.667 -3.65216
LeftFoot  3.35054 0.6293 -5.0381
LeftToes  1.06245e-005 4.65869e-005 -8.65517e-006
120
root  13.6156 40.5717 9.62752 140.693 86.4348 143.668
RightUpLeg  0.724321 -12.8727 -13.6364
RightLeg  7.79688 -9.72134 2.08012
RightFoot  -0.537823 -0.417176 4.36686
RightToes  0.000481921 0.542163 -0.142578
Spine  0.153782 -1.32722 -2.34645
Spine1  13.3746 -2.35793 3.34131
HEad  11.38 -1.1097 0.290807
LeftShoulder1  8.99351 -12.8546 -47.9892
LeftArm  -12.0544 8.5768 -27.4577
LeftForeArm  175.072 -52.729 -167.168
LeftHand  -0.25398 0.0180481 5.50724
RightShoulder  4.16389 7.07116 33.429
RightArm  -1.45211 -25.8657 39.2701
RightForeArm  150.565 46.1589 168.142
RightHand  -1.23752 2.76917 -17.757
LeftUpLeg  1.16508 7.25202 7.30746
LeftLeg  1.74243 12.4711 -3.65567
LeftFoot  3.36533 0.626984 -5.01515
LeftToes  1.06245e-005 4.65869e-005 -8.65517e-006
121
root  13.6098 40.5672 9.62892 141.281 86.3002 144.311
RightUpLeg  0.736417 -13.0316 -13.7284
RightLeg  7.97194 -9.65442 2.05793
RightFoot  -0.654447 -0.413295 4.36843
RightToes  0.000481921 0.542163 -0.142578
Spine  0.171124 -1.46888 -2.57909
Spine1  13.3065 -2.52124 3.40044
HEad  11.4375 -0.808554 0.0553178
LeftShoulder1  8.98207 -12.8423 -47.9643
LeftArm  -12.3456 8.876 -27.2375
LeftForeArm  174.95 -52.6422 -167.198
LeftHand  -0.25398 0.0180481 5.50724
RightShoulder  4.13346 7.00288 33.395
RightArm  -1.43438 -27.0062 39.5982
RightForeArm  150.603 46.0166 168.197
RightHand  -1.26037 2.81545 -17.9786
LeftUpLeg  1.16233 7.21359 7.24435
LeftLeg  1.7888 12.3802 -3.6324
LeftFoot  3.36267 0.624823 -4.99498
LeftToes  1.06245e-005 4.65869e-005 -8.65517e-006
122
root  13.6035 40.5621 9.63168 140.923 86.2511 143.999
RightUpLeg  0.697465 -13.1466 -13.7783
RightLeg  8.15698 -9.53542 1.99642
RightFoot  -0.763318 -0.410851 4.38251
RightToes  0.000481921 0.542163 -0.142578
Spine  0.128979 -1.55236 -2.76115
Spine1  13.3485 -2.63467 3.4847
HEad  11.4234 -0.588924 -0.117503
LeftShoulder1  8.97727 -12.8108 -48.0297
LeftArm  -12.513 9.01348 -27.0418
LeftForeArm  174.961 -52.5953 -167.22
LeftHand  -0.25398 0.0180481 5.50724
RightShoulder  4.10459 6.94331 33.3431
RightArm  -1.39796 -27.525 39.9535
RightForeArm  150.921 46.0074 168.221
RightHand  -1.25153 2.7781 -17.9334
LeftUpLeg  1.17192 7.19564 7.20119
LeftLeg  1.84104 12.365 -3.6207
LeftFoot  3.34969 0.62273 -4.97596
LeftToes  1.06245e-005 4.65869e-005 -8.65517e-006
123
root  13.5961 40.5582 9.63367 140.084 86.2679 143.216
RightUpLeg  0.668288 -13.2075 -13.7978
RightLeg  8.2924 -9.41578 1.93899
RightFoot  -0.831045 -0.406647 4.35438
RightToes  0.000481921 0.542163 -0.142578
Spine  0.0945961 -1.58568 -2.95088
Spine1  13.3935 -2.73109 3.68813
HEad  11.3812 -0.485509 -0.252374
LeftShoulder1  8.97795 -12.7562 -48.1898
LeftArm  -12.5642 9.05617 -26.9037
LeftForeArm  174.989 -52.5762 -167.23
LeftHand  -0.25398 0.0180481 5.50724
RightShoulder  4.0985 6.94052 33.2955
RightArm  -1.3203 -27.479 40.1012
RightForeArm  150.993 46.1103 168.187
RightHand  -1.24202 2.75387 -17.8516
LeftUpLeg  1.21712 7.20482 7.19052
LeftLeg  1.87719 12.3929 -3.63102
LeftFoot  3.33355 0.621014 -4.96261
LeftToes  1.06245e-005 4.65869e-005 -8.65517e-006
